<svg width="17" height="17" viewBox="0 0 17 17" fill="none" xmlns="http://www.w3.org/2000/svg">
<path d="M2.48957 10.9896C3.41537 10.0638 4.51732 9.37846 5.7196 8.96358C4.43192 8.07669 3.58594 6.59241 3.58594 4.91406C3.58594 2.20446 5.79039 0 8.5 0C11.2096 0 13.4141 2.20446 13.4141 4.91406C13.4141 6.59241 12.5681 8.07669 11.2804 8.96358C12.4826 9.37846 13.5846 10.0638 14.5104 10.9896C16.1158 12.595 17 14.7296 17 17H15.6719C15.6719 13.0454 12.4546 9.82812 8.5 9.82812C4.54541 9.82812 1.32812 13.0454 1.32812 17H0C0 14.7296 0.884166 12.595 2.48957 10.9896ZM8.5 8.5C10.4773 8.5 12.0859 6.89137 12.0859 4.91406C12.0859 2.93675 10.4773 1.32812 8.5 1.32812C6.52272 1.32812 4.91406 2.93675 4.91406 4.91406C4.91406 6.89137 6.52272 8.5 8.5 8.5Z" fill="#870F10"/>
</svg>
