<svg width="16" height="15" viewBox="0 0 16 15" fill="none" xmlns="http://www.w3.org/2000/svg">
<path d="M15.3446 14.4666L10.9453 9.90249C11.8591 8.84994 12.4207 7.46218 12.4207 5.93748C12.4206 2.66358 9.85319 0 6.69739 0C3.5416 0 0.974121 2.66358 0.974121 5.93751C0.974121 9.21144 3.5416 11.875 6.69739 11.875C8.16707 11.875 9.50474 11.2924 10.5193 10.3444L14.9187 14.9084C14.9775 14.9695 15.0546 15 15.1317 15C15.2087 15 15.2858 14.9695 15.3447 14.9084C15.4623 14.7864 15.4623 14.5886 15.3446 14.4666ZM6.69739 11.25C3.87401 11.25 1.57659 8.86688 1.57659 5.93751C1.57659 3.00814 3.87401 0.62499 6.69739 0.62499C9.52078 0.62499 11.8182 3.00812 11.8182 5.93751C11.8182 8.8669 9.52078 11.25 6.69739 11.25Z" fill="#666666"/>
</svg>
